<svg xmlns="http://www.w3.org/2000/svg" width="640" height="640" viewBox="0 0 640 640">
  <defs>
    <linearGradient id="bg" x1="76" y1="48" x2="562" y2="590" gradientUnits="userSpaceOnUse">
      <stop offset="0" stop-color="#F8FBFF"/>
      <stop offset=".52" stop-color="#DCEBFF"/>
      <stop offset="1" stop-color="#B7D1FF"/>
    </linearGradient>
    <linearGradient id="accent" x1="205" y1="170" x2="442" y2="463" gradientUnits="userSpaceOnUse">
      <stop offset="0" stop-color="#5CC8FF"/>
      <stop offset="1" stop-color="#5D6CFF"/>
    </linearGradient>
    <filter id="shadow" x="122" y="130" width="410" height="390" filterUnits="userSpaceOnUse" color-interpolation-filters="sRGB">
      <feDropShadow dx="0" dy="28" stdDeviation="28" flood-color="#31517A" flood-opacity=".22"/>
    </filter>
  </defs>
  <rect width="640" height="640" rx="92" fill="url(#bg)"/>
  <circle cx="112" cy="116" r="52" fill="#FFFFFF" opacity=".68"/>
  <circle cx="530" cy="520" r="82" fill="#FFFFFF" opacity=".38"/>
  <g filter="url(#shadow)">
    <rect x="154" y="156" width="332" height="316" rx="54" fill="#FFFFFF" opacity=".72"/>
    <path d="M389 225v152c0 41-32 71-74 71-35 0-63-22-63-52 0-33 33-56 70-50 12 2 22 6 30 11V246l-126 25v-48l163-32c18-4 34 10 34 28v6h-34Z" fill="url(#accent)"/>
  </g>
  <path d="M192 494h256" stroke="#6684B5" stroke-width="18" stroke-linecap="round" opacity=".42"/>
  <path d="M238 532h164" stroke="#6684B5" stroke-width="14" stroke-linecap="round" opacity=".3"/>
</svg>
